<?xml version="1.0" encoding="UTF-8"?>
<!DOCTYPE svg PUBLIC "-//W3C//DTD SVG 1.1//EN" "http://www.w3.org/Graphics/SVG/1.1/DTD/svg11.dtd">
<svg version="1.2" width="132.29mm" height="132.29mm" viewBox="0 0 13229 13229" preserveAspectRatio="xMidYMid" fill-rule="evenodd" stroke-width="28.222" stroke-linejoin="round" xmlns="http://www.w3.org/2000/svg" xmlns:ooo="http://xml.openoffice.org/svg/export" xmlns:xlink="http://www.w3.org/1999/xlink" xmlns:presentation="http://sun.com/xmlns/staroffice/presentation" xmlns:smil="http://www.w3.org/2001/SMIL20/" xmlns:anim="urn:oasis:names:tc:opendocument:xmlns:animation:1.0" xml:space="preserve">
 <defs class="ClipPathGroup">
  <clipPath id="presentation_clip_path" clipPathUnits="userSpaceOnUse">
   <rect x="0" y="0" width="13229" height="13229"/>
  </clipPath>
  <clipPath id="presentation_clip_path_shrink" clipPathUnits="userSpaceOnUse">
   <rect x="13" y="13" width="13203" height="13203"/>
  </clipPath>
 </defs>
 <defs class="TextShapeIndex">
  <g ooo:slide="id1" ooo:id-list="id3 id4 id5 id6 id7 id8 id9 id10 id11 id12 id13 id14 id15 id16"/>
 </defs>
 <defs class="EmbeddedBulletChars">
  <g id="bullet-char-template-57356" transform="scale(0.00048828125,-0.00048828125)">
   <path d="M 580,1141 L 1163,571 580,0 -4,571 580,1141 Z"/>
  </g>
  <g id="bullet-char-template-57354" transform="scale(0.00048828125,-0.00048828125)">
   <path d="M 8,1128 L 1137,1128 1137,0 8,0 8,1128 Z"/>
  </g>
  <g id="bullet-char-template-10146" transform="scale(0.00048828125,-0.00048828125)">
   <path d="M 174,0 L 602,739 174,1481 1456,739 174,0 Z M 1358,739 L 309,1346 659,739 1358,739 Z"/>
  </g>
  <g id="bullet-char-template-10132" transform="scale(0.00048828125,-0.00048828125)">
   <path d="M 2015,739 L 1276,0 717,0 1260,543 174,543 174,936 1260,936 717,1481 1274,1481 2015,739 Z"/>
  </g>
  <g id="bullet-char-template-10007" transform="scale(0.00048828125,-0.00048828125)">
   <path d="M 0,-2 C -7,14 -16,27 -25,37 L 356,567 C 262,823 215,952 215,954 215,979 228,992 255,992 264,992 276,990 289,987 310,991 331,999 354,1012 L 381,999 492,748 772,1049 836,1024 860,1049 C 881,1039 901,1025 922,1006 886,937 835,863 770,784 769,783 710,716 594,584 L 774,223 C 774,196 753,168 711,139 L 727,119 C 717,90 699,76 672,76 641,76 570,178 457,381 L 164,-76 C 142,-110 111,-127 72,-127 30,-127 9,-110 8,-76 1,-67 -2,-52 -2,-32 -2,-23 -1,-13 0,-2 Z"/>
  </g>
  <g id="bullet-char-template-10004" transform="scale(0.00048828125,-0.00048828125)">
   <path d="M 285,-33 C 182,-33 111,30 74,156 52,228 41,333 41,471 41,549 55,616 82,672 116,743 169,778 240,778 293,778 328,747 346,684 L 369,508 C 377,444 397,411 428,410 L 1163,1116 C 1174,1127 1196,1133 1229,1133 1271,1133 1292,1118 1292,1087 L 1292,965 C 1292,929 1282,901 1262,881 L 442,47 C 390,-6 338,-33 285,-33 Z"/>
  </g>
  <g id="bullet-char-template-9679" transform="scale(0.00048828125,-0.00048828125)">
   <path d="M 813,0 C 632,0 489,54 383,161 276,268 223,411 223,592 223,773 276,916 383,1023 489,1130 632,1184 813,1184 992,1184 1136,1130 1245,1023 1353,916 1407,772 1407,592 1407,412 1353,268 1245,161 1136,54 992,0 813,0 Z"/>
  </g>
  <g id="bullet-char-template-8226" transform="scale(0.00048828125,-0.00048828125)">
   <path d="M 346,457 C 273,457 209,483 155,535 101,586 74,649 74,723 74,796 101,859 155,911 209,963 273,989 346,989 419,989 480,963 531,910 582,859 608,796 608,723 608,648 583,586 532,535 482,483 420,457 346,457 Z"/>
  </g>
  <g id="bullet-char-template-8211" transform="scale(0.00048828125,-0.00048828125)">
   <path d="M -4,459 L 1135,459 1135,606 -4,606 -4,459 Z"/>
  </g>
  <g id="bullet-char-template-61548" transform="scale(0.00048828125,-0.00048828125)">
   <path d="M 173,740 C 173,903 231,1043 346,1159 462,1274 601,1332 765,1332 928,1332 1067,1274 1183,1159 1299,1043 1357,903 1357,740 1357,577 1299,437 1183,322 1067,206 928,148 765,148 601,148 462,206 346,322 231,437 173,577 173,740 Z"/>
  </g>
 </defs>
 <g>
  <g id="id2" class="Master_Slide">
   <g id="bg-id2" class="Background"/>
   <g id="bo-id2" class="BackgroundObjects"/>
  </g>
 </g>
 <g class="SlideGroup">
  <g>
   <g id="container-id1">
    <g id="id1" class="Slide" clip-path="url(#presentation_clip_path)">
     <g class="Page">
      <g class="com.sun.star.drawing.ClosedBezierShape">
       <g id="id3">
        <rect class="BoundingBox" stroke="none" fill="none" x="1764" y="1748" width="9700" height="9701"/>
        <path fill="none" stroke="rgb(220,36,31)" stroke-width="1681" stroke-linejoin="miter" d="M 10622,6598 C 10622,7302 10437,7993 10085,8603 9733,9212 9228,9719 8619,10070 8009,10422 7318,10607 6614,10607 5910,10607 5218,10422 4609,10070 3999,9719 3494,9212 3142,8603 2790,7993 2605,7302 2605,6598 2605,5895 2790,5203 3142,4594 3494,3984 3999,3477 4609,3126 5218,2774 5910,2589 6614,2589 7318,2589 8009,2774 8619,3126 9228,3477 9733,3984 10085,4594 10437,5203 10622,5895 10622,6598 Z"/>
       </g>
      </g>
      <g class="com.sun.star.drawing.LineShape">
       <g id="id4">
        <rect class="BoundingBox" stroke="none" fill="none" x="612" y="5673" width="12004" height="1851"/>
        <path fill="none" stroke="rgb(0,25,168)" stroke-width="1849" stroke-linejoin="miter" d="M 612,6598 L 12615,6598"/>
       </g>
      </g>
      <g class="Group">
       <g class="com.sun.star.drawing.ClosedBezierShape">
        <g id="id5">
         <rect class="BoundingBox" stroke="none" fill="none" x="1366" y="6096" width="202" height="1116"/>
         <path fill="rgb(255,255,246)" stroke="none" d="M 1366,7210 C 1366,6839 1366,6468 1366,6096 1433,6096 1499,6096 1566,6096 1566,6468 1566,6839 1566,7210 1499,7210 1433,7210 1366,7210 Z"/>
        </g>
       </g>
       <g class="com.sun.star.drawing.ClosedBezierShape">
        <g id="id6">
         <rect class="BoundingBox" stroke="none" fill="none" x="1759" y="6096" width="787" height="1116"/>
         <path fill="rgb(255,255,246)" stroke="none" d="M 1760,7210 C 1760,6839 1760,6468 1760,6096 1825,6096 1889,6096 1954,6096 2089,6344 2224,6592 2359,6840 2359,6592 2359,6344 2359,6096 2421,6096 2482,6096 2544,6096 2544,6468 2544,6839 2544,7210 2477,7210 2411,7210 2344,7210 2211,6968 2078,6726 1945,6484 1945,6726 1945,6968 1945,7210 1884,7210 1822,7210 1760,7210 Z"/>
        </g>
       </g>
       <g class="com.sun.star.drawing.ClosedBezierShape">
        <g id="id7">
         <rect class="BoundingBox" stroke="none" fill="none" x="2718" y="6077" width="926" height="1153"/>
         <path fill="rgb(255,255,246)" stroke="none" d="M 3212,6801 L 3212,6613 3643,6613 3643,7057 C 3601,7102 3540,7142 3461,7177 3382,7212 3301,7229 3220,7229 3116,7229 3026,7205 2949,7156 2873,7107 2815,7037 2776,6946 2738,6855 2718,6756 2718,6649 2718,6533 2740,6430 2783,6340 2826,6250 2889,6181 2972,6132 3036,6096 3115,6077 3209,6077 3332,6077 3428,6106 3497,6164 3566,6222 3610,6302 3630,6405 L 3432,6446 C 3418,6392 3391,6348 3353,6317 3315,6285 3267,6269 3209,6269 3122,6269 3053,6300 3001,6363 2950,6425 2924,6517 2924,6640 2924,6772 2950,6872 3002,6938 3054,7004 3123,7037 3207,7037 3249,7037 3291,7028 3333,7009 3375,6991 3411,6968 3441,6942 L 3441,6801 3212,6801 Z"/>
        </g>
       </g>
       <g class="com.sun.star.drawing.ClosedBezierShape">
        <g id="id8">
         <rect class="BoundingBox" stroke="none" fill="none" x="3832" y="6105" width="698" height="1106"/>
         <path fill="rgb(255,255,246)" stroke="none" d="M 3833,7210 C 3833,6842 3833,6474 3833,6106 3899,6106 3966,6106 4032,6106 4032,6411 4032,6717 4032,7022 4198,7022 4363,7022 4528,7022 4528,7085 4528,7147 4528,7210 4297,7210 4065,7210 3833,7210 Z"/>
        </g>
       </g>
       <g class="com.sun.star.drawing.ClosedBezierShape">
        <g id="id9">
         <rect class="BoundingBox" stroke="none" fill="none" x="4670" y="5805" width="754" height="1407"/>
         <path fill="rgb(255,255,246)" stroke="none" d="M 4671,7210 C 4671,6839 4671,6468 4671,6097 4915,6097 5160,6097 5404,6097 5404,6159 5404,6222 5404,6285 5226,6285 5048,6285 4870,6285 4870,6367 4870,6449 4870,6531 5036,6531 5201,6531 5367,6531 5367,6594 5367,6656 5367,6719 5201,6719 5036,6719 4870,6719 4870,6820 4870,6921 4870,7022 5055,7022 5239,7022 5423,7022 5423,7085 5423,7147 5423,7210 5172,7210 4922,7210 4671,7210 Z M 4924,6032 C 4955,5956 4986,5881 5017,5805 5088,5805 5159,5805 5230,5805 5168,5881 5106,5956 5044,6032 5004,6032 4964,6032 4924,6032 Z"/>
        </g>
       </g>
       <g class="com.sun.star.drawing.ClosedBezierShape">
        <g id="id10">
         <rect class="BoundingBox" stroke="none" fill="none" x="5537" y="6077" width="806" height="1154"/>
         <path fill="rgb(255,255,246)" stroke="none" d="M 5538,6848 L 5732,6827 C 5744,6900 5767,6954 5803,6988 5839,7023 5887,7040 5948,7040 6012,7040 6060,7025 6093,6994 6126,6964 6142,6928 6142,6887 6142,6860 6135,6838 6121,6819 6108,6801 6084,6785 6050,6771 6026,6762 5973,6746 5890,6723 5783,6693 5708,6656 5665,6613 5604,6551 5573,6477 5573,6389 5573,6332 5588,6279 5616,6229 5645,6180 5686,6142 5740,6117 5793,6091 5858,6078 5934,6078 6058,6078 6152,6109 6214,6170 6277,6231 6310,6313 6313,6415 L 6114,6425 C 6105,6368 6087,6327 6059,6302 6031,6277 5988,6264 5932,6264 5874,6264 5829,6277 5796,6304 5775,6321 5764,6345 5764,6373 5764,6400 5774,6422 5794,6441 5819,6465 5880,6490 5977,6515 6074,6541 6146,6568 6193,6596 6239,6623 6276,6661 6302,6709 6328,6756 6342,6816 6342,6886 6342,6950 6326,7010 6294,7065 6263,7121 6218,7162 6161,7189 6103,7216 6032,7230 5946,7230 5821,7230 5725,7197 5658,7132 5591,7067 5551,6973 5538,6848 Z"/>
        </g>
       </g>
       <g class="com.sun.star.drawing.ClosedBezierShape">
        <g id="id11">
         <rect class="BoundingBox" stroke="none" fill="none" x="6857" y="6077" width="927" height="1153"/>
         <path fill="rgb(255,255,246)" stroke="none" d="M 7352,6801 L 7352,6613 7782,6613 7782,7057 C 7740,7102 7680,7142 7600,7177 7521,7212 7441,7229 7359,7229 7256,7229 7166,7205 7089,7156 7012,7107 6954,7037 6916,6946 6877,6855 6858,6756 6858,6649 6858,6533 6879,6430 6922,6340 6966,6250 7029,6181 7112,6132 7175,6096 7254,6077 7349,6077 7471,6077 7567,6106 7636,6164 7705,6222 7750,6302 7769,6405 L 7571,6446 C 7557,6392 7531,6348 7493,6317 7454,6285 7406,6269 7349,6269 7261,6269 7192,6300 7141,6363 7089,6425 7063,6517 7063,6640 7063,6772 7089,6872 7142,6938 7194,7004 7262,7037 7347,7037 7388,7037 7430,7028 7472,7009 7514,6991 7550,6968 7581,6942 L 7581,6801 7352,6801 Z"/>
        </g>
       </g>
       <g class="com.sun.star.drawing.ClosedBezierShape">
        <g id="id12">
         <rect class="BoundingBox" stroke="none" fill="none" x="7969" y="6096" width="890" height="1116"/>
         <path fill="rgb(255,255,246)" stroke="none" d="M 7969,7210 L 7969,6096 8389,6096 C 8495,6096 8572,6106 8619,6126 8667,6146 8706,6182 8734,6233 8763,6284 8778,6342 8778,6408 8778,6492 8756,6561 8712,6615 8669,6670 8603,6704 8517,6718 8560,6747 8595,6778 8624,6812 8652,6846 8689,6906 8737,6993 L 8858,7210 8619,7210 8475,6968 C 8424,6881 8389,6826 8370,6804 8351,6781 8331,6766 8310,6758 8288,6749 8255,6745 8209,6745 L 8169,6745 8169,7210 7969,7210 Z M 8169,6567 L 8316,6567 C 8412,6567 8472,6563 8496,6554 8520,6544 8538,6529 8552,6506 8565,6484 8572,6456 8572,6423 8572,6385 8563,6355 8545,6332 8528,6309 8502,6294 8470,6288 8454,6286 8405,6284 8324,6284 L 8169,6284 8169,6567 Z"/>
        </g>
       </g>
       <g class="com.sun.star.drawing.ClosedBezierShape">
        <g id="id13">
         <rect class="BoundingBox" stroke="none" fill="none" x="8861" y="6096" width="994" height="1115"/>
         <path fill="rgb(255,255,246)" stroke="none" d="M 9854,7210 C 9781,7210 9709,7210 9637,7210 9608,7126 9579,7041 9550,6957 9418,6957 9287,6957 9155,6957 9128,7041 9101,7126 9073,7210 9003,7210 8932,7210 8862,7210 8990,6839 9118,6468 9247,6097 9317,6097 9387,6097 9458,6097 9590,6468 9722,6839 9854,7210 Z M 9486,6769 C 9441,6632 9395,6494 9350,6356 9305,6494 9261,6632 9216,6769 9306,6769 9396,6769 9486,6769 Z"/>
        </g>
       </g>
       <g class="com.sun.star.drawing.ClosedBezierShape">
        <g id="id14">
         <rect class="BoundingBox" stroke="none" fill="none" x="9783" y="6096" width="788" height="1116"/>
         <path fill="rgb(255,255,246)" stroke="none" d="M 10077,7211 C 10077,6902 10077,6594 10077,6285 9979,6285 9882,6285 9784,6285 9784,6222 9784,6159 9784,6097 10046,6097 10308,6097 10570,6097 10570,6159 10570,6222 10570,6285 10472,6285 10374,6285 10277,6285 10277,6594 10277,6902 10277,7211 10210,7211 10144,7211 10077,7211 Z"/>
        </g>
       </g>
       <g class="com.sun.star.drawing.ClosedBezierShape">
        <g id="id15">
         <rect class="BoundingBox" stroke="none" fill="none" x="10692" y="6096" width="201" height="1116"/>
         <path fill="rgb(255,255,246)" stroke="none" d="M 10692,7210 C 10692,6839 10692,6468 10692,6096 10759,6096 10825,6096 10892,6096 10892,6468 10892,6839 10892,7210 10825,7210 10759,7210 10692,7210 Z"/>
        </g>
       </g>
       <g class="com.sun.star.drawing.ClosedBezierShape">
        <g id="id16">
         <rect class="BoundingBox" stroke="none" fill="none" x="11033" y="6077" width="806" height="1154"/>
         <path fill="rgb(255,255,246)" stroke="none" d="M 11033,6848 L 11228,6827 C 11239,6900 11263,6954 11299,6988 11334,7023 11383,7040 11443,7040 11508,7040 11556,7025 11589,6994 11621,6964 11637,6928 11637,6887 11637,6860 11631,6838 11617,6819 11603,6801 11579,6785 11545,6771 11522,6762 11468,6746 11385,6723 11278,6693 11203,6656 11160,6613 11099,6551 11069,6477 11069,6389 11069,6332 11083,6279 11112,6229 11140,6180 11182,6142 11235,6117 11289,6091 11354,6078 11430,6078 11554,6078 11647,6109 11710,6170 11773,6231 11806,6313 11809,6415 L 11609,6425 C 11601,6368 11582,6327 11554,6302 11526,6277 11484,6264 11428,6264 11370,6264 11324,6277 11292,6304 11270,6321 11260,6345 11260,6373 11260,6400 11270,6422 11290,6441 11315,6465 11376,6490 11473,6515 11570,6541 11642,6568 11688,6596 11735,6623 11771,6661 11798,6709 11824,6756 11837,6816 11837,6886 11837,6950 11821,7010 11790,7065 11758,7121 11714,7162 11656,7189 11599,7216 11527,7230 11441,7230 11316,7230 11220,7197 11153,7132 11086,7067 11046,6973 11033,6848 Z"/>
        </g>
       </g>
      </g>
     </g>
    </g>
   </g>
  </g>
 </g>
</svg>